<svg viewBox="0 0 569 600" fill="none" xmlns="http://www.w3.org/2000/svg">
<path d="M31.5825 326.539C25.5071 328.372 19.0878 328.907 12.7831 327.952C10.1466 327.532 7.39545 326.845 5.25568 325.203C4.49147 324.63 4.07116 323.981 3.57443 323.217C3.99474 323.828 3.11591 323.943 3.88011 323.37C5.98167 321.766 8.04502 321.995 10.1848 323.599C12.1335 325.05 13.3944 327.265 14.3497 329.441C15.9163 333.184 16.1074 336.773 15.2667 340.553C14.1586 345.556 11.3311 350.062 7.35724 353.269C5.98167 354.377 5.98167 356.859 6.21093 358.462C6.32556 359.188 7.16618 362.434 8.54175 361.326C19.2406 352.773 21.9535 336.811 17.2155 324.363C16.0309 321.232 14.2733 318.177 11.7132 316C9.26774 313.938 5.63778 312.716 2.92486 315.045C0.173723 317.413 -0.284799 321.766 0.135513 325.126C0.555825 328.678 2.19886 331.809 5.29389 333.756C8.77101 335.933 13.318 336.506 17.2919 336.697C22.221 336.964 27.1501 336.277 31.8882 334.864C34.5247 334.138 33.6076 325.928 31.5825 326.539Z" fill="#B0757C" fill-opacity="0.7"/>
<path d="M422.893 126.982C429.885 128.815 436.725 131.755 443.221 134.886C458.428 142.18 472.604 151.917 484.297 164.136C491.327 171.43 497.173 179.678 501.797 188.69C507.452 199.725 511.196 211.715 514.062 223.744C516.24 232.87 517.616 242.188 518.342 251.543C518.839 257.958 518.953 264.45 520.023 270.827C522.277 284.344 532.136 294.502 543.293 301.642C545.318 302.941 547.381 304.163 549.483 305.346C549.827 305.537 548.642 303.552 548.528 303.437C547.916 302.559 547.114 301.184 546.121 300.611C542.185 298.358 538.287 295.991 534.657 293.242C533.244 292.172 531.83 291.027 530.531 289.805C529.996 289.308 529.461 288.774 528.964 288.239C528.506 287.743 528.047 287.246 527.894 287.056C527.665 286.788 527.894 287.056 527.818 286.941C527.932 287.094 527.512 286.483 527.627 286.674C527.398 286.33 527.13 285.91 526.824 285.375C526.213 284.268 525.716 283.122 525.258 281.939C524.379 279.457 523.806 276.898 523.424 274.302C522.468 267.772 522.354 261.166 521.781 254.598C520.978 245.013 519.412 235.505 517.081 226.15C514.139 214.312 510.279 202.551 504.624 191.706C499.542 181.969 493.161 172.881 485.901 164.671C474.209 151.459 459.995 140.614 444.367 132.481C439.094 129.731 433.668 127.287 428.128 125.187C426.332 124.5 424.536 123.889 422.74 123.278C421.899 123.011 420.791 122.438 419.874 122.4C419.76 122.4 419.607 122.323 419.492 122.285C419.034 122.17 420.333 124.042 420.447 124.194C420.944 124.843 421.976 126.753 422.893 126.982Z" fill="black"/>
<path d="M557.278 408.218C555.062 414.099 551.89 419.712 548.719 425.134C540.16 439.683 529.69 453.124 518.074 465.42C500.307 484.207 479.711 500.322 457.511 513.534C452.2 516.703 446.965 519.873 442.227 523.882C438.177 527.319 434.509 531.175 431.299 535.414C425.72 542.784 421.555 551.185 418.881 560.006C415.595 570.927 414.066 582.802 415.06 594.22C415.098 594.602 415.136 595.022 415.174 595.404C415.251 596.091 415.404 597.236 416.053 596.473C416.703 595.709 416.397 593.303 416.282 592.425C416.206 591.89 416.244 592.005 416.282 592.54C416.244 592.005 416.206 591.47 416.168 590.936C416.13 590.592 416.13 590.21 416.13 589.867C416.091 589.179 416.13 589.867 416.13 589.828C416.13 589.561 416.13 589.294 416.13 589.027C416.13 587.919 416.13 586.774 416.168 585.666C416.168 586.277 416.168 585.628 416.168 585.361C416.168 585.017 416.206 584.673 416.206 584.368C416.244 583.604 416.282 582.879 416.359 582.115C416.473 580.778 416.588 579.442 416.817 577.8C417.276 574.287 418.002 570.812 418.881 567.414C424.154 547.595 437.107 531.366 454.76 521.056C476.807 508.15 497.364 492.646 515.247 474.394C527.359 462.022 538.326 448.389 547.382 433.611C551.241 427.311 555.215 420.628 557.775 413.64C557.813 413.526 557.851 413.45 557.889 413.335C558.348 412.113 558.31 410.586 558.119 409.287C558.119 408.905 557.736 407.073 557.278 408.218Z" fill="black"/>
<path d="M367.488 518.154C371.233 520.369 375.512 524.035 378.493 527.662C380.671 530.297 383.04 533.734 383.307 537.247C383.307 537.323 383.307 537.667 383.231 538.049C383.04 539.156 382.619 540.225 382.123 541.256C381.244 543.051 379.945 544.579 379.104 546.373C375.818 553.438 377.308 562.488 380.174 569.399C383.116 576.54 387.625 583.031 392.477 589.027C395.458 592.692 398.629 596.282 402.03 599.566C402.68 600.215 402.909 597.542 402.909 597.313C402.985 596.358 403.215 594.067 402.412 593.303C394.159 585.399 386.326 575.814 381.588 565.39C380.25 562.411 378.913 558.86 378.798 555.843C378.798 555.996 378.798 555.767 378.798 555.538C378.836 555.156 378.798 555.347 378.875 554.85C378.989 554.278 379.142 553.629 379.371 553.018C380.059 551.185 381.282 549.695 382.237 548.015C386.478 540.264 385.256 530.259 380.25 523.195C376.964 518.536 372.379 514.527 367.488 511.625C367.029 511.357 366.762 514.641 366.762 514.87C366.762 515.749 366.647 517.658 367.488 518.154Z" fill="black"/>
<path d="M237.382 519.758C234.631 519.72 231.804 522.278 230.046 524.111C227.218 527.09 225.193 530.755 223.474 534.459C220.494 540.875 218.583 547.824 217.055 554.698C214.265 567.299 212.928 580.206 212.049 593.074C212.011 593.761 211.743 596.702 212.546 597.084C213.348 597.427 213.386 595.212 213.425 594.831C214.151 583.68 215.297 572.568 217.551 561.609C218.965 554.774 220.761 547.939 223.55 541.524C225.881 536.178 229.358 529.495 234.899 526.937C235.625 526.593 236.504 526.249 237.344 526.249C238.414 526.249 238.49 519.758 237.382 519.758Z" fill="black"/>
<path d="M200.051 112.815C194.511 113.999 189.085 115.641 183.735 117.359C170.247 121.674 157.065 127.096 144.379 133.435C127.452 141.912 111.327 152.146 96.8073 164.327C80.0712 178.38 65.5131 195.105 54.6614 214.121C42.1667 236.04 34.8686 260.555 32.4995 285.643C31.0475 301.07 30.8565 316.84 31.9646 332.305C33.493 353.155 37.6197 373.813 44.7268 393.479C53.9736 418.986 68.1878 442.509 86.1848 462.823C97.304 475.386 109.837 486.728 123.21 496.847C133.03 504.255 143.576 510.632 153.244 518.231C160.58 523.997 167.152 530.603 172.578 538.24C179.953 548.55 185.378 560.158 190.193 571.805C193.594 580.015 196.689 588.377 199.631 596.74C200.089 598.076 200.586 595.9 200.624 595.556C200.854 594.143 200.854 592.387 200.357 591.05C195.084 576.082 189.467 561.113 182.092 547.022C177.316 537.896 171.699 529.19 164.516 521.705C158.173 515.061 150.76 509.562 143.233 504.331C130.394 495.434 117.746 486.575 106.092 476.112C84.4272 456.676 66.1245 433.344 53.5151 407.073C43.9626 387.216 37.6579 365.87 34.7157 344.028C34.1426 339.675 33.6841 335.322 33.3402 330.931C33.1873 328.907 33.0727 326.845 32.9581 324.821C32.8816 322.912 32.8052 321.002 32.767 319.628C32.6906 316.229 32.6906 312.831 32.7288 309.394C32.7288 308.669 32.767 307.905 32.767 307.179C32.767 306.836 32.767 306.454 32.8052 306.11C32.8052 305.881 32.8434 304.544 32.8052 305.461C32.8434 304.163 32.8816 302.864 32.9581 301.528C33.9133 277.776 38.6132 254.598 48.586 232.908C57.8711 212.785 71.2829 194.799 87.2547 179.487C101.392 165.969 117.479 154.552 134.597 145.082C147.971 137.674 161.994 131.411 176.399 126.333C183.774 123.736 191.301 121.33 198.943 119.574C199.287 119.498 199.631 119.421 200.013 119.345C201.427 119.154 200.739 112.7 200.051 112.815Z" fill="black"/>
<path d="M230.161 544.617C239.904 547.519 250.03 549.275 260.079 550.765C283.158 554.163 306.734 554.927 329.927 552.216C345.555 550.383 360.992 546.87 375.741 541.371C377.232 540.798 376.085 534.765 375.741 534.879C350.485 544.311 323.355 547.786 296.494 547.29C277.656 546.946 258.78 544.731 240.363 540.684C236.924 539.92 233.523 539.118 230.161 538.125C229.702 537.973 228.709 544.159 230.161 544.617Z" fill="black"/>
<path d="M221.831 4.82637C223.206 13.4945 226.569 22.048 230.657 29.7615C239.14 45.9522 252.59 59.088 269.555 66.1141C279.91 70.3909 290.915 71.8801 301.919 73.3694C311.892 74.744 321.865 75.966 331.8 77.5698C350.408 80.5864 369.475 85.0159 385.409 95.5169C403.673 107.545 414.83 126.562 420.447 147.373C421.326 150.619 422.09 153.903 422.74 157.225C422.969 158.408 423.466 158.256 423.772 157.225C424.154 155.774 424.077 153.979 423.772 152.566C419.339 130.686 410.36 109.035 392.86 94.4096C378.302 82.2666 359.922 76.3478 341.582 72.7202C331.876 70.8109 322.056 69.4744 312.236 68.1761C301.881 66.8015 291.297 65.8468 281.133 63.3266C261.722 58.5152 245.292 46.5249 234.631 29.6851C231.001 23.9573 228.097 17.8476 225.843 11.4706C224.582 7.88121 223.818 5.13185 223.054 1.35149C222.901 0.702335 223.015 1.16056 223.054 1.50423C222.939 0.778706 222.786 -0.634157 222.06 0.32048C221.372 1.19875 221.64 3.79536 221.831 4.82637Z" fill="black"/>
<path d="M207.349 23.9191C205.783 27.814 204.674 31.9381 203.643 36.0239C201.083 46.2576 199.707 56.7968 199.363 67.336C198.867 82.152 200.395 97.0444 204.331 111.326C209.069 128.433 217.131 144.471 227.944 158.561C242.044 176.967 260.308 191.783 280.101 203.696C283.044 205.453 286.024 207.171 289.043 208.813C289.539 209.081 289.769 205.758 289.769 205.491C289.769 204.689 289.921 202.665 289.043 202.169C268.409 190.828 249.075 176.623 233.676 158.676C222.098 145.196 212.966 129.693 207.311 112.815C204.98 105.865 203.261 98.7245 202.191 91.4693C201.656 87.918 201.312 84.7868 201.083 81.5029C200.968 79.8991 200.892 78.2571 200.815 76.6533C200.777 75.8514 200.815 76.7297 200.815 76.1569C200.815 75.7369 200.815 75.355 200.777 74.935C200.777 74.1331 200.739 73.3312 200.777 72.5293C200.777 67.1833 201.121 61.8373 201.809 56.3768C202.42 51.5272 203.031 47.8996 204.178 43.0119C204.598 41.2553 205.018 39.4606 205.515 37.7041C205.821 36.6349 205.706 36.9786 206.012 35.9094C206.203 35.2602 206.394 34.6111 206.585 34.0001C207.044 32.549 207.578 31.1744 208.075 29.7233C208.113 29.6469 208.113 29.6088 208.152 29.5324C208.687 28.1959 208.61 26.4012 208.419 25.0265C208.266 24.6446 207.846 22.6208 207.349 23.9191Z" fill="black"/>
<path d="M302.76 10.096C298.901 14.2582 295.462 18.8405 292.329 23.5755C286.826 31.8617 282.012 41.2172 281.057 51.26C280.942 52.4819 280.56 54.6967 281.324 55.7659C282.012 56.7587 282.241 55.2694 282.318 54.5821C283.235 45.1885 288.317 36.3676 293.513 28.7305C296.417 24.4537 299.589 20.2533 303.142 16.473C303.945 15.6329 303.715 13.4563 303.639 12.4253C303.639 12.0816 303.371 9.44682 302.76 10.096Z" fill="black"/>
<path d="M318.426 8.18664C318.197 13.9145 319.343 19.7569 321.33 25.141C325.419 36.253 333.634 45.1884 343.683 51.3363C351.402 56.0713 359.999 59.2025 368.787 61.3027C374.404 62.6392 380.136 63.4411 385.791 64.7394C391.102 65.9613 396.375 67.4887 401.533 69.3216C419.148 75.5459 435.693 85.3214 448.723 98.839C457.549 108.004 466.147 120.185 467.866 132.786C467.904 133.13 467.943 133.435 467.981 133.779C468.019 134.122 467.981 133.741 467.981 133.702C467.981 133.893 468.019 134.084 468.019 134.275C468.019 134.542 468.057 134.81 468.057 135.115C468.095 135.764 468.057 135.153 468.057 135.039C468.057 135.23 468.057 135.383 468.057 135.574C468.057 136.032 468.019 138.896 468.783 138.896C469.547 138.896 469.509 135.879 469.509 135.574C469.433 122.476 463.587 110.333 455.715 100.137C445.131 86.4669 430.726 75.8895 415.213 68.4434C405.66 63.8611 395.534 60.4244 385.218 58.0569C379.677 56.7968 374.06 56.0331 368.52 54.6966C363.667 53.5128 358.891 52.0236 354.267 50.1525C341.964 45.0738 330.615 36.7112 324.349 24.721C322.438 21.0933 321.139 17.4275 320.375 13.6854C320.298 13.3035 320.222 12.9216 320.146 12.5398C320.298 13.3035 320.107 12.2725 320.069 12.0052C320.031 11.6997 319.993 11.3942 319.955 11.1269C319.916 10.936 319.84 9.94318 319.878 10.5923C319.916 11.1269 319.84 9.90499 319.802 9.56132C319.763 8.95035 319.763 10.5541 319.802 9.52314C319.84 9.1031 319.84 8.79761 319.763 10.0577C319.802 9.33221 320.069 6.35374 319.267 6.01007C318.541 5.51366 318.426 7.7666 318.426 8.18664Z" fill="black"/>
<path d="M558.424 396.228C560.182 391.34 560.564 386.032 560.717 380.915C560.87 374.615 560.449 368.314 559.876 362.052C558.692 349.603 556.59 337.269 555.062 324.821C554.756 322.339 554.527 320.315 554.374 318.1C554.336 317.604 554.298 317.069 554.298 316.573C554.298 316.344 554.259 316.076 554.259 315.847C554.221 315.045 554.259 316.496 554.259 315.695C554.259 315.313 554.259 314.893 554.259 314.511C554.259 314.32 554.298 313.785 554.259 314.587C554.259 314.32 554.259 314.091 554.298 313.823C554.336 313.213 554.259 314.434 554.298 313.823C554.298 313.671 554.336 313.518 554.374 313.365C554.221 314.091 554.412 313.136 554.489 312.983C554.298 313.518 554.565 312.831 554.603 312.716C554.527 312.869 554.68 312.525 554.833 312.411C555.329 311.952 555.979 312.029 556.705 312.372C558.271 313.174 559.609 314.893 560.64 316.229C562.627 318.826 564.079 321.766 565.111 324.821C567.251 331.045 567.748 337.766 567.556 344.296C567.365 351.169 566.41 358.08 565.035 364.801C564.576 367.054 564.079 369.269 563.506 371.484C563.353 372.095 563.201 372.706 563.009 373.316C562.857 373.851 562.818 373.966 562.933 373.622C562.551 374.92 562.513 376.333 562.704 377.67C562.742 378.013 563.239 379.923 563.583 378.739C566.143 369.956 567.633 360.792 568.435 351.703C569.085 344.066 569.123 336.238 567.9 328.639C566.792 321.804 564.691 314.816 560.105 309.47C559.074 308.248 556.17 304.735 554.412 306.797C553.533 307.828 553.381 309.547 553.228 310.845C552.96 313.06 552.998 315.351 553.075 317.604C553.572 329.441 555.941 341.241 557.431 352.964C558.271 359.608 559.036 366.252 559.38 372.935C559.647 378.166 559.762 383.168 558.654 388.209C558.424 389.202 558.157 390.156 557.813 391.111C557.354 392.333 557.393 393.86 557.584 395.159C557.584 395.54 557.966 397.373 558.424 396.228Z" fill="black"/>
<path d="M450.366 280.029C447.462 275.333 443.259 270.368 437.145 272.545C431.146 274.683 428.242 281.671 425.988 287.094C421.135 298.702 419.339 314.969 428.892 324.859C433.286 329.403 441.119 331.694 445.284 325.546C446.354 323.981 446.316 321.537 445.819 319.78C445.513 318.749 444.367 316.726 443.259 318.329C439.361 324.057 431.796 319.666 428.815 315.466C425.529 310.845 425.185 305.117 426.446 299.733C427.211 296.487 428.433 293.394 429.847 290.416C431.146 287.628 432.56 284.497 435.005 282.473C437.26 280.564 440.393 279.609 443.182 281.06C445.704 282.397 447.271 284.993 448.723 287.323C449.755 288.965 450.977 286.674 451.206 285.757C451.627 283.848 451.398 281.71 450.366 280.029Z" fill="#B0757C" fill-opacity="0.7"/>
<path d="M412.614 292.554C421.861 295.189 431.108 297.824 440.355 300.459C441.96 300.917 442.418 298.664 442.533 297.48C442.647 296.411 442.647 292.783 441.119 292.325C431.872 289.69 422.625 287.055 413.378 284.421C411.774 283.962 411.315 286.215 411.2 287.399C411.086 288.468 411.086 292.096 412.614 292.554Z" fill="#B0757C" fill-opacity="0.7"/>
<path d="M409.481 311.609C418.804 314.625 428.395 316.84 438.1 318.177C440.393 318.482 440.661 310.158 437.909 309.776C428.51 308.478 419.301 306.377 410.283 303.475C407.494 302.597 407.15 310.883 409.481 311.609Z" fill="#B0757C" fill-opacity="0.7"/>
<path d="M455.18 312.182C453.996 311.38 453.002 310.425 452.162 309.241C451.818 308.745 451.512 308.248 451.283 307.676C451.168 307.447 451.054 307.179 451.015 306.95C450.748 305.919 450.786 306.225 451.015 307.828C450.748 308.707 450.481 309.585 450.213 310.425C451.207 308.898 454.034 309.738 455.257 310.501C455.945 310.921 456.518 311.494 456.9 312.22C457.626 313.518 456.785 313.785 457.549 311.838C457.817 311.456 458.084 311.074 458.352 310.692C457.473 311.532 455.601 310.998 454.645 310.54C454.302 310.387 453.767 309.814 453.385 309.738C453.919 310.998 453.919 312.105 453.385 313.136C453.614 312.945 453.843 312.831 454.111 312.754C453.614 312.64 453.117 312.487 452.659 312.373C453.423 313.136 454.187 313.862 454.913 314.625C456.25 315.924 457.167 314.32 457.473 313.022C457.855 311.456 457.932 308.401 456.632 307.103C455.868 306.339 455.104 305.614 454.378 304.85C453.881 304.354 453.576 304.163 452.926 304.468C450.328 305.537 449.831 309.241 449.907 311.685C450.022 314.664 451.168 317.833 454.111 319.093C456.556 320.124 459.498 320.391 460.568 317.489C461.714 314.396 461.103 310.234 459.957 307.217C459.001 304.697 457.244 302.406 454.645 301.49C452.124 300.611 448.99 301.031 447.844 303.743C446.43 307.027 447.538 311.38 449.105 314.473C450.366 316.993 452.162 319.055 454.493 320.659C455.983 321.69 456.671 318.368 456.747 317.566C456.785 315.886 456.671 313.213 455.18 312.182Z" fill="black"/>
<path d="M455.959 308.584C456.635 308.194 456.679 307.004 456.056 305.927C455.434 304.849 454.381 304.292 453.704 304.682C453.028 305.072 452.985 306.262 453.607 307.339C454.23 308.417 455.283 308.974 455.959 308.584Z" fill="white"/>
<path d="M558.806 332.153C559.532 333.145 560.182 334.176 560.755 335.284C560.984 335.742 561.328 335.704 561.557 335.246C561.787 334.749 561.749 333.947 561.519 333.451C560.87 332.229 560.182 331.045 559.341 329.938C558.997 329.48 558.653 330.091 558.577 330.434C558.424 330.931 558.462 331.656 558.806 332.153Z" fill="black"/>
<path d="M561.022 327.456C561.443 328.296 561.863 329.174 562.283 330.014C562.513 330.472 562.895 330.434 563.086 329.976C563.315 329.441 563.277 328.678 563.048 328.181C562.627 327.341 562.207 326.463 561.787 325.623C561.557 325.165 561.175 325.203 560.984 325.661C560.755 326.196 560.793 326.959 561.022 327.456Z" fill="black"/>
</svg>
