<svg id="Layer_1" data-name="Layer 1" xmlns="http://www.w3.org/2000/svg" viewBox="0 0 1724.79 2016.13"><defs><style>.cls-1,.cls-3{fill:#ffce00;}.cls-2{fill:#fff;}.cls-3{font-size:368.12px;stroke:#ffce00;stroke-miterlimit:10;stroke-width:2px;font-family:MLingWaiMedium-SC-GBpc-EUC-H, LingWai SC;}</style></defs><path class="cls-1" d="M434.53,977.08a111.72,111.72,0,0,1-49.22,3.68c-6.93-1.07-14.05-2.86-19.72-7.19a21.11,21.11,0,0,1-4.44-5.16c1.09,1.55-1.25,1.91.76.38,5.52-4.22,10.86-3.57,16.5.62,5.11,3.79,8.45,9.57,10.89,15.34a46.12,46.12,0,0,1,2.4,29.09A59.22,59.22,0,0,1,371,1047.12c-3.65,2.92-3.64,9.43-3,13.62.28,1.88,2.51,10.41,6.09,7.53,28-22.42,35.08-64.16,22.66-96.75-3.11-8.18-7.69-16.19-14.42-21.92-6.38-5.43-15.94-8.55-23-2.5s-8.43,17.59-7.34,26.42c1.15,9.31,5.45,17.53,13.5,22.61,9.07,5.72,21,7.22,31.45,7.75a112.37,112.37,0,0,0,38.22-4.8c7.18-2.17,4.77-23.61-.54-22Z" transform="translate(-238.12 -121.85)"/><path d="M1458.63,454.41c18.32,4.77,36.16,12.49,53.16,20.66,39.78,19.11,76.93,44.64,107.54,76.55a271,271,0,0,1,45.81,64.28c14.76,28.87,24.62,60.29,32.08,91.77a481,481,0,0,1,11.25,72.79c1.34,16.8,1.61,33.82,4.4,50.47,6,35.42,31.67,62,61,80.74,5.3,3.39,10.71,6.6,16.18,9.71.9.51-2.19-4.66-2.45-5-1.64-2.34-3.72-5.9-6.3-7.37a273.54,273.54,0,0,1-30-19.25,136.15,136.15,0,0,1-10.78-9c-1.43-1.32-2.81-2.67-4.15-4.08-1.18-1.25-2.36-2.63-2.78-3.14-.6-.74,0,0-.21-.26.28.39-.83-1.23-.45-.65-.59-.89-1.26-2-2.07-3.45a64.2,64.2,0,0,1-4.06-9,102.61,102.61,0,0,1-4.83-20c-2.55-17-2.83-34.41-4.3-51.58A473.49,473.49,0,0,0,1705.38,714c-7.74-31-17.78-61.84-32.63-90.22a357.28,357.28,0,0,0-49-70.78c-30.62-34.64-67.78-63-108.73-84.35a393.54,393.54,0,0,0-42.49-19.1c-4.66-1.76-9.37-3.43-14.12-5-2.24-.73-5.12-2.18-7.5-2.29a6.18,6.18,0,0,1-1-.27c-1.15-.3,2.19,4.64,2.46,5,1.23,1.76,4,6.76,6.3,7.36Z" transform="translate(-238.12 -121.85)"/><path d="M1810.4,1191c-5.79,15.42-14.07,30.14-22.39,44.28-22.44,38.14-49.83,73.35-80.18,105.49-46.5,49.24-100.36,91.36-158.47,126-13.93,8.31-27.59,16.58-40,27.13a192.42,192.42,0,0,0-28.55,30.19,204.58,204.58,0,0,0-32.47,64.44c-8.64,28.63-12.59,59.71-10,89.61.09,1,.18,2.06.3,3.08.22,1.83.57,4.83,2.33,2.77s.88-8.25.61-10.56c-.17-1.36-.08-1,0,.25-.09-1.4-.22-2.81-.3-4.22,0-.94-.08-1.87-.12-2.81-.09-1.84,0,0,0-.1,0-.7,0-1.41,0-2.11,0-2.94,0-5.89.06-8.83,0,1.63,0-.14,0-.77l.12-2.62c.11-2,.23-4,.38-5.92.28-3.54.65-7,1.21-11.27a219.22,219.22,0,0,1,5.44-27.22c13.8-51.95,47.67-94.39,93.88-121.42,57.73-33.75,111.47-74.39,158.27-122.24,31.71-32.44,60.37-68.1,84.06-106.83,10.09-16.51,20.53-34,27.22-52.27.09-.25.2-.51.29-.76,1.2-3.19,1.09-7.25.61-10.56-.14-1-1.18-5.81-2.32-2.77Z" transform="translate(-238.12 -121.85)"/><path d="M1313.66,1478.84a118.51,118.51,0,0,1,28.78,24.92c5.66,6.91,11.88,16,12.61,25.15a12.38,12.38,0,0,1-.22,2.11,33.73,33.73,0,0,1-2.91,8.38c-2.27,4.69-5.69,8.67-7.9,13.41-8.63,18.47-4.67,42.17,2.79,60.33,7.7,18.72,19.52,35.71,32.22,51.36a303.07,303.07,0,0,0,25,27.64c1.72,1.65,2.27-5.34,2.3-5.94.16-2.45.77-8.46-1.3-10.45-21.56-20.72-42.08-45.77-54.51-73.07-3.54-7.77-7-17.11-7.34-25,0,.43,0-.21,0-.78a8.28,8.28,0,0,1,.22-1.84,28,28,0,0,1,1.32-4.81c1.81-4.82,5-8.66,7.5-13.13,11.1-20.28,7.87-46.5-5.19-65-8.57-12.16-20.58-22.69-33.39-30.28-1.25-.73-1.87,7.9-1.87,8.5,0,2.19-.36,7.19,1.87,8.5Z" transform="translate(-238.12 -121.85)"/><path d="M973.18,1483c-7.21-.08-14.64,6.61-19.16,11.41-7.37,7.82-12.74,17.43-17.21,27.13-7.77,16.85-12.82,35-16.81,53-7.27,33-10.84,66.81-13.06,100.51-.11,1.8-.76,9.53,1.31,10.45s2.23-4.93,2.3-5.93c1.92-29.15,5-58.34,10.82-87,3.67-17.93,8.39-35.79,15.65-52.64,6.06-14,15.23-31.48,29.74-38.17a15.77,15.77,0,0,1,6.42-1.8c2.67,0,2.83-17,0-17Z" transform="translate(-238.12 -121.85)"/><path d="M875.44,417.38c-14.45,3.05-28.7,7.41-42.74,11.92a725.82,725.82,0,0,0-103,42.1c-44.33,22.21-86.52,49-124.51,81-43.83,36.82-81.9,80.6-110.29,130.42-32.74,57.43-51.77,121.58-58,187.3a735.62,735.62,0,0,0-1.4,122.21c3.95,54.59,14.78,108.67,33.42,160.17,24.18,66.8,61.44,128.42,108.48,181.59a663.63,663.63,0,0,0,96.93,89.15c25.67,19.4,53.27,36.11,78.57,56a255.15,255.15,0,0,1,50.61,52.38c19.26,27,33.49,57.36,46.13,87.92,8.9,21.52,17,43.37,24.7,65.33,1.23,3.5,2.47-2.23,2.6-3.1a26.1,26.1,0,0,0-.68-11.85c-13.78-39.21-28.49-78.41-47.76-115.32-12.49-23.93-27.23-46.74-46-66.32-16.64-17.41-36-31.83-55.71-45.52-33.56-23.29-66.74-46.51-97.2-73.86-56.72-50.93-104.55-112-137.59-180.82a552.62,552.62,0,0,1-49.21-165q-2.31-17.1-3.6-34.31-.58-8-1-16c-.24-4.95-.42-10-.5-13.63q-.31-13.37-.11-26.75c0-1.93.06-3.86.1-5.79,0-.93.05-1.86.07-2.79,0-.62.11-4.08,0-1.74q.17-5.13.36-10.26c2.46-62.2,14.76-123,40.93-179.66,24.29-52.66,59.38-99.84,101.23-139.86,37-35.4,79.12-65.29,123.89-90.07A724.22,724.22,0,0,1,813.68,453a553.61,553.61,0,0,1,59-17.71c.92-.22,1.83-.43,2.75-.62,3.6-.76,1.76-17.69,0-17.32Z" transform="translate(-238.12 -121.85)"/><path d="M954.29,1548.1c25.46,7.57,52,12.24,78.27,16.09,60.39,8.85,122.12,10.94,182.81,3.81,40.92-4.8,81.31-14,119.93-28.41,3.89-1.46.92-17.34,0-17-66.08,24.72-137.09,33.84-207.39,32.53A744.64,744.64,0,0,1,981,1537.77c-8.95-2-17.94-4-26.74-6.67-1.23-.36-3.81,15.87,0,17Z" transform="translate(-238.12 -121.85)"/><path d="M932.41,134.53c3.63,22.72,12.42,45.07,23.05,65.34,22.23,42.38,57.4,76.76,101.85,95.23,27.07,11.25,55.92,15.09,84.74,19,26.07,3.58,52.21,6.75,78.19,11,48.67,7.9,98.59,19.5,140.29,47,47.78,31.51,77,81.34,91.75,135.81,2.31,8.53,4.29,17.13,6,25.79.62,3.09,1.94,2.74,2.69,0a28.08,28.08,0,0,0,0-12.24c-11.59-57.35-35.06-114-80.93-152.3-38.11-31.82-86.22-47.34-134.22-56.81-25.44-5-51.15-8.5-76.84-11.93-27.09-3.61-54.84-6.15-81.41-12.73a200.24,200.24,0,0,1-121.67-88.11,234.5,234.5,0,0,1-23-47.72,187.86,187.86,0,0,1-7.34-26.45c-.36-1.74-.09-.53.05.35-.3-1.86-.67-5.6-2.61-3.1-1.8,2.32-1.1,9.2-.68,11.84Z" transform="translate(-238.12 -121.85)"/><path d="M894.51,184.51c-4.15,10.19-7,21-9.68,31.67a394.14,394.14,0,0,0-11.18,82c-1.26,38.76,2.68,77.78,13,115.2a362.29,362.29,0,0,0,61.81,123.67c36.92,48.19,84.72,87,136.5,118.22q11.55,7,23.36,13.44c1.33.73,1.9-8,1.9-8.66,0-2.15.37-7.41-1.9-8.66-54-29.75-104.62-66.92-144.95-113.91-30.31-35.31-54.24-75.89-69-120.07a329.87,329.87,0,0,1-13.45-55.86c-1.38-9.25-2.29-17.52-2.88-26.09-.29-4.22-.51-8.46-.66-12.69-.08-2.1,0,.18,0-1.32,0-1.06-.05-2.12-.07-3.18,0-2.1,0-4.19,0-6.29a342.23,342.23,0,0,1,2.67-42.27,322.71,322.71,0,0,1,6.16-35q1.59-7,3.46-13.86c.76-2.78.51-1.89,1.34-4.7q.75-2.52,1.54-5c1.19-3.76,2.63-7.44,3.87-11.18l.19-.48c1.42-3.49,1.2-8.18.69-11.84-.17-1.19-1.25-6.45-2.61-3.11Z" transform="translate(-238.12 -121.85)"/><path d="M1144.29,148.31A276.23,276.23,0,0,0,1117,183.57c-14.41,21.73-27,46.18-29.49,72.5-.3,3.2-1.25,9,.69,11.84,1.79,2.62,2.43-1.31,2.6-3.1,2.36-24.57,15.68-47.68,29.33-67.68A273.91,273.91,0,0,1,1145.3,165c2.08-2.24,1.5-7.87,1.33-10.65-.05-.76-.83-7.68-2.34-6.05Z" transform="translate(-238.12 -121.85)"/><path d="M1185.25,143.32c-.58,15,2.42,30.32,7.59,44.35,10.73,29.14,32.21,52.55,58.49,68.64,20.22,12.38,42.72,20.62,65.72,26.13,14.72,3.53,29.74,5.58,44.49,9a382.1,382.1,0,0,1,41.16,12c46.08,16.3,89.43,41.94,123.47,77.27,23.12,24,45.61,55.86,50.11,88.91.12.86.22,1.73.32,2.59s0-.09,0-.23c.05.48.09,1,.12,1.45,0,.72.09,1.45.12,2.17.08,1.66,0,.14,0-.17,0,.47,0,.94,0,1.41,0,1.2-.13,8.66,1.91,8.66s1.91-7.87,1.9-8.66c-.15-34.29-15.46-66.14-36.12-92.82-27.74-35.82-65.41-63.49-106-83A371,371,0,0,0,1360,273.77c-14.49-3.3-29.22-5.32-43.67-8.82A254.92,254.92,0,0,1,1279,253c-32.23-13.29-61.87-35.19-78.26-66.61a110.4,110.4,0,0,1-10.39-28.92c-.2-1-.39-2-.58-3,.37,2-.11-.74-.21-1.43s-.21-1.56-.31-2.35c-.06-.49-.31-3.06-.16-1.38a22.52,22.52,0,0,0-.16-2.72c-.13-1.56-.12,2.64,0-.07,0-1.15.07-1.87-.06,1.43.07-1.85.81-9.69-1.33-10.65s-2.3,5-2.34,6Z" transform="translate(-238.12 -121.85)"/><path d="M1813.3,1159.52c4.62-12.76,5.65-26.69,6-40.14.44-16.5-.67-33-2.23-49.43-3.09-32.63-8.61-65-12.58-97.47-.79-6.47-1.39-11.8-1.8-17.64-.1-1.34-.18-2.68-.25-4,0-.63,0-1.26-.08-1.9-.09-2.08,0,1.67,0-.36,0-1,0-2.06,0-3.1,0-.51.08-1.85,0,.23,0-.65.05-1.31.11-2,.14-1.65-.08,1.62,0,0a8.58,8.58,0,0,1,.16-1.24c-.38,1.87.11-.57.25-1-.49,1.38.16-.42.33-.68-.24.38.22-.49.59-.83,1.34-1.2,3-1,4.9-.11,4.09,2.07,7.57,6.64,10.25,10.14a79,79,0,0,1,11.72,22.55c5.58,16.3,6.87,33.87,6.38,51a319.76,319.76,0,0,1-6.58,53.74c-1.19,5.87-2.5,11.71-4,17.51q-.62,2.42-1.26,4.82c-.36,1.36-.5,1.75-.23.84a25.42,25.42,0,0,0-.61,10.56c.13.86,1.4,5.93,2.32,2.77,6.72-23,10.65-47,12.68-70.82,1.72-20,1.81-40.53-1.39-60.44-2.87-17.89-8.44-36.21-20.43-50.21-2.72-3.18-10.29-12.42-14.9-7-2.27,2.7-2.74,7.24-3.14,10.57a107.38,107.38,0,0,0-.38,17.66c1.31,31,7.48,61.87,11.45,92.6,2.24,17.38,4.22,34.81,5.08,52.31.67,13.72,1,26.81-1.89,40a59.57,59.57,0,0,1-2.17,7.62c-1.16,3.21-1.09,7.21-.61,10.56.14,1,1.22,5.83,2.32,2.77Z" transform="translate(-238.12 -121.85)"/><path class="cls-1" d="M1530.6,855.24C1523,842.94,1512,830,1496,835.63c-15.71,5.55-23.29,24-29.21,38.14-12.65,30.36-17.35,73,7.62,98.9,11.49,11.93,32,17.94,43,1.81,2.8-4.11,2.68-10.48,1.35-15.09-.79-2.71-3.82-8-6.67-3.79-10.21,15-30,3.47-37.81-7.54-8.63-12.14-9.5-27.07-6.17-41.18a128.24,128.24,0,0,1,8.87-24.44c3.42-7.35,7.15-15.5,13.51-20.81,5.94-5,14.14-7.45,21.35-3.66,6.58,3.46,10.67,10.26,14.46,16.39,2.69,4.34,5.91-1.73,6.48-4.11a20.23,20.23,0,0,0-2.09-15Z" transform="translate(-238.12 -121.85)"/><path class="cls-1" d="M1431.74,888l72.56,20.65c4.24,1.21,5.41-4.68,5.72-7.83.28-2.8.29-12.32-3.69-13.45l-72.55-20.65c-4.25-1.21-5.41,4.67-5.72,7.83-.28,2.8-.29,12.32,3.68,13.45Z" transform="translate(-238.12 -121.85)"/><path class="cls-1" d="M1423.55,938a440.21,440.21,0,0,0,74.91,17.25c6,.83,6.73-21-.54-22a424.8,424.8,0,0,1-72.33-16.53c-7.26-2.34-8.1,19.32-2,21.28Z" transform="translate(-238.12 -121.85)"/><path d="M1543.15,939.48a30.2,30.2,0,0,1-7.89-7.73,22.9,22.9,0,0,1-2.3-4.1,7.76,7.76,0,0,1-.74-1.94q-1-4,0,2.27l-2.11,6.83c2.61-4,10-1.81,13.18.2a12.36,12.36,0,0,1,4.26,4.45c1.9,3.44-.32,4.09,1.66-1l2.11-3c-2.3,2.19-7.16.77-9.75-.44-.94-.44-2.34-1.94-3.26-2.1q2.07,4.89,0,8.87a5.68,5.68,0,0,1,1.9-1l-3.85-1.05,5.95,5.86c3.47,3.41,5.87-.84,6.68-4.23,1-4.12,1.25-12.12-2.16-15.48l-5.95-5.86c-1.31-1.29-2.09-1.77-3.84-1.05-6.82,2.82-8.12,12.5-7.87,18.92.31,7.79,3.27,16.13,11,19.36,6.43,2.71,14.08,3.39,16.94-4.19,3.05-8.1,1.38-19-1.65-26.87-2.53-6.58-7.06-12.61-13.93-15-6.6-2.3-14.8-1.19-17.83,5.9-3.68,8.63-.76,20,3.3,28.06a42.92,42.92,0,0,0,14.07,16.21c3.9,2.69,5.69-6,5.89-8.07.41-4.19.13-11.15-3.8-13.87Z" transform="translate(-238.12 -121.85)"/><ellipse class="cls-2" cx="1542.24" cy="924.92" rx="3.68" ry="5.87" transform="translate(-493.95 773.18) rotate(-30)"/><path d="M1814.36,991.71a61.12,61.12,0,0,1,5.07,8.2c.6,1.16,1.53,1.14,2.07,0a6.18,6.18,0,0,0-.11-4.74,69.34,69.34,0,0,0-5.69-9.23c-.9-1.23-1.78.43-2,1.25a5.93,5.93,0,0,0,.63,4.57Z" transform="translate(-238.12 -121.85)"/><path d="M1820.17,979.47l3.25,6.74c.57,1.17,1.56,1.15,2.07-.05a6.25,6.25,0,0,0-.12-4.73l-3.25-6.75c-.57-1.17-1.56-1.14-2.07.05a6.32,6.32,0,0,0,.12,4.74Z" transform="translate(-238.12 -121.85)"/><text class="cls-3" transform="translate(1 1937.08)">小猪存钱计划</text></svg>